# xmcd CD database file
#
# Track frame offsets:
#	150
#	27195
#	43892
#	75717
#	100479
#	122250
#	144047
#	169800
#	195680
#	220217
#	239265
#	262272
#	283260
#	305435
#
# Disc length: 4443 seconds
#
# Revision: 0
# Processed by: cddbd v1.5PL3 Copyright (c) Steve Scherf et al.
# Submitted via: CDex 1.50beta10
#
DISCID=c911590e
DTITLE=Masqualero - Masqualero
DYEAR=1983
DGENRE=Jazz
TTITLE0=Ved Fossen
TTITLE1=Wallen, wallen!/Helsinki song
TTITLE2=Delete
TTITLE3=Nyl
TTITLE4=Til Radka
TTITLE5=Rememberance
TTITLE6=Fortere
TTITLE7=Drifter
TTITLE8=Masqualero
TTITLE9=Sinki song
TTITLE10=Aural Exciter
TTITLE11=Not yet
TTITLE12=Off balance
TTITLE13=Den hemmelige
EXTD=YEAR: 1983
EXTT0=
EXTT1=
EXTT2=
EXTT3=
EXTT4=
EXTT5=
EXTT6=
EXTT7=
EXTT8=
EXTT9=
EXTT10=
EXTT11=
EXTT12=
EXTT13=
PLAYORDER=
